<svg enable-background="new 0 0 45.943 45.943" height="45.943" viewBox="0 0 45.943 45.943" width="45.943" xmlns="http://www.w3.org/2000/svg"><circle cx="17.802" cy="28.803" r="1.782"/><circle cx="28.178" cy="28.803" r="1.782"/><path d="m36.48 35.582c.309-1.149.473-2.356.473-3.602 0-2.674-.756-5.168-2.063-7.293-.146.018-.292.033-.441.033h-3.558c1.764 1.874 2.841 4.463 2.841 7.264 0 1.252-.216 2.453-.61 3.571-1.931-.185-4.32-.667-7.267-1.653-1.176-.395-2.275.406-2.882 1.534-.606-1.128-1.707-1.931-2.883-1.536-2.926.98-5.305 1.461-7.228 1.649-.396-1.118-.61-2.313-.61-3.563 0-2.802 1.077-5.391 2.84-7.265h-3.576c-.144 0-.285-.015-.425-.03-1.307 2.125-2.061 4.62-2.061 7.291 0 1.246.164 2.454.472 3.604-3.168-.287-4.124-1.431-4.068-.693.114 1.507 2.489 2.912 5.407 3.957 2.4 4.231 6.947 7.093 12.151 7.093 5.21 0 9.762-2.871 12.161-7.11 2.895-1.043 5.243-2.442 5.358-3.94.054-.733-.892.397-4.031.689zm-13.489 7.139c-2.596 0-4.979-.925-6.839-2.464 1.504.271 2.892.409 3.937.381 1.23-.032 2.295-.688 2.883-1.661.588.973 1.652 1.629 2.882 1.661 1.058.028 2.464-.114 3.985-.392-1.86 1.545-4.247 2.475-6.848 2.475z"/><path d="m22.98 14.614.305.047 9.715 1.495v-6.663c0-2.819-2.28-5.137-5.102-5.137h-1.768c.113-.326.176-.675.176-1.047.001-1.833-1.485-3.309-3.315-3.309-1.833 0-3.318 1.473-3.318 3.305 0 .373.063.726.176 1.052h-1.768c-2.819 0-5.121 2.318-5.121 5.137v6.662l9.717-1.495z"/><path d="m11.515 22.686h22.933c.855 0 1.566-.672 1.566-1.53v-1.182c0-.766-.566-1.418-1.324-1.534l-11.705-1.8-11.712 1.8c-.757.116-1.326.768-1.326 1.534v1.182c-.001.858.711 1.53 1.568 1.53z"/></svg>