<svg enable-background="new 0 0 31.777 31.777" height="31.777" viewBox="0 0 31.777 31.777" width="31.777" xmlns="http://www.w3.org/2000/svg"><path d="m31.667 27.394c-.25-.246-6.394-6.315-12.746-12.594 2.913-4.206 9.363-13.742 9.363-13.742l.168-.844-11.47 12.428.011.254c-6.223-6.15-12.098-11.954-12.245-12.099-.313-.309-.75-.039-1.061.276-.312.316-3.259 3.423-3.687 3.855.459.555.856.467 1.189.129.335-.339 2.563-2.593 2.563-2.593s.106.105.304.3l-2.674 2.706.361.357 2.674-2.706c.092.091.195.193.303.3l-2.674 2.706.362.358 2.673-2.706c.1.099.204.201.313.31l-2.672 2.706.362.358 2.674-2.706c.098.096.2.197.303.299l-2.674 2.706.362.357 2.674-2.707c.083.083.167.167.254.252l-2.674 2.706.362.358 2.674-2.707c.1.099.2.198.303.3l-2.674 2.707.362.357 2.674-2.706c.105.104.212.209.32.316l-2.674 2.707.362.357 2.674-2.707c.099.099.201.199.303.3l-2.674 2.706.362.357 2.673-2.706c.104.103.208.206.314.311l-2.674 2.706.361.357 2.674-2.706c.101.099.202.199.304.299l-2.674 2.706.363.358 2.673-2.706c.083.083.17.167.255.251l-2.674 2.707.362.357 2.674-2.707c.1.1.201.2.303.3l-2.674 2.706.363.357 2.674-2.706c.084.084.169.167.254.251l-2.674 2.706.362.357 2.674-2.706c.101.1.201.199.303.299l-2.676 2.708.362.358 2.674-2.707c.104.103.208.207.313.31l-2.673 2.707.362.357 2.673-2.706c.101.099.202.199.303.299l-2.673 2.706.275.271c-2.777.689-5.178.346-5.275.332-1.469-.396-3.196.041-4.458 1.283-1.807 1.777-1.984 4.537-.396 6.15 1.589 1.613 4.351 1.479 6.157-.299.005-.006.01-.012.016-.018-.002.016-.005.027-.005.027l8.774-8.069c.049.048.096.096.146.143l-2.674 2.706.361.356.158-.159-5.824 6.171c-.06.054-.121.104-.179.16-1.806 1.779-1.984 4.539-.396 6.152 1.588 1.612 4.35 1.479 6.157-.301 1.289-1.268 1.743-3.035 1.324-4.529-.038-.308-.441-4.029 1.318-7.518l1.397-1.416c6.173 6.1 12.033 11.891 12.207 12.061.369.372 1.847-.824 1.326-1.337zm-13.718-14.675c.275-.271.72-.268.99.008.272.276.269.72-.008.992-.274.271-.72.268-.99-.008-.272-.276-.269-.721.008-.992zm-11.322 9.298c-1.284 1.264-3.202 1.405-4.276.314-1.073-1.09-.902-3.006.381-4.271 1.284-1.264 3.202-1.404 4.275-.312 1.075 1.091.904 3.006-.38 4.269zm8.585-8.228-.286.29c-.422.265-.852.499-1.285.695l1.269-1.284c.101.099.202.199.302.299zm-.919-.909c.085.084.17.168.255.253l-2.064 2.089c-.241.08-.48.151-.717.215zm-1.133 16.31c-1.284 1.264-3.202 1.403-4.275.313-1.074-1.091-.903-3.006.381-4.271s3.202-1.404 4.275-.314c1.073 1.092.902 3.008-.381 4.272z"/><path d="m20.8 13.005 10.944-10.047-.881.202s-2.924 1.984-6.243 4.246c-1.289 1.896-2.666 3.918-3.82 5.599z"/></svg>