<svg enable-background="new 0 0 44 44" viewBox="0 0 44 44" xmlns="http://www.w3.org/2000/svg"><path d="m43 26.447c-3.529 0-6.611-2.561-7.637-5.983-1.198.959-2.713 1.536-4.363 1.536-3.86 0-7-3.141-7-7s3.14-7 7-7 7 3.141 7 7c0 1.293-.359 2.501-.973 3.542.275 3.203 2.946 5.906 5.973 5.906h.861c.089-.805.139-1.62.139-2.448 0-12.131-9.869-22-22-22s-22 9.869-22 22 9.869 22 22 22c10.608 0 19.486-7.547 21.548-17.553zm-37-11.447c0-3.859 3.14-7 7-7s7 3.141 7 7-3.14 7-7 7-7-3.141-7-7zm30.922 17.063-1.208 1.209c-1.568 1.568-3.654 2.433-5.873 2.433h-.107c-2.42 0-4.724-1.064-6.32-2.92-.924-1.074-1.351-1.086-1.355-1.086-.073.008-.148.008-.222 0-.005 0-.432.012-1.358 1.086-1.596 1.855-3.899 2.92-6.319 2.92-2.218 0-4.304-.864-5.873-2.433l-1.208-1.209c-.564-.564-.732-1.406-.427-2.144.306-.738 1.02-1.215 1.818-1.215h2.112c2.463-4.117 5.872-5.422 6.016-5.476 2.477-.746 4.335.497 5.386 1.492.753-.783 2.106-1.72 3.847-1.72.468 0 .939.07 1.401.208.202.07 3.72 1.374 6.205 5.492l2.094.004c.799 0 1.513.477 1.818 1.215.305.737.137 1.579-.427 2.144z"/><path d="m13 20c2.757 0 5-2.243 5-5s-2.243-5-5-5-5 2.243-5 5 2.243 5 5 5zm0-8c1.657 0 3 1.343 3 3s-1.343 3-3 3-3-1.343-3-3 1.343-3 3-3z"/></svg>