<svg enable-background="new 0 0 32.003 32.003" height="32.003" viewBox="0 0 32.003 32.003" width="32.003" xmlns="http://www.w3.org/2000/svg"><path d="m13.891 11.526c1.872-.081 2.463-.945 2.638-1.341.176.396.767 1.26 2.638 1.341.79-.076 2.068-.091 2.068-1.278-.763.549-2.129.259-2.389-.79-.196-1.004-1.918-1.599-2.317-.845-.399-.754-2.121-.159-2.318.845-.259 1.049-1.626 1.339-2.387.79-.002 1.189 1.277 1.203 2.067 1.278z"/><path d="m31.001 16.648c.009-.208.032-.414.032-.626 0-.188-.021-.371-.028-.558.075-.362.256-.732.432-1.074.172-.382.351-.724.39-.918.158-.641-.215-1.027-.625-1.276-.292-.182-.601-.3-.793-.433-.11-.367-.24-.727-.376-1.082-.039-.383-.002-.803.032-1.187.049-.424.114-.809.095-1.008-.183-1.126-1.37-1.011-1.927-1.15-.223-.311-.449-.617-.694-.909-.367-.692-.399-1.772-.598-2.094-.502-1.039-1.618-.507-2.183-.471-.311-.224-.632-.432-.96-.629-.548-.577-.966-1.521-1.238-1.804-.452-.478-.99-.354-1.413-.171-.31.135-.577.333-.798.431-.386-.114-.775-.218-1.174-.303-.691-.349-1.362-1.124-1.706-1.271-.586-.268-1.05-.029-1.391.285-.248.249-.437.525-.612.69-.396.016-.79.039-1.177.085-.776-.088-1.683-.637-2.058-.646-.646-.082-1.013.28-1.221.727-.157.311-.248.632-.364.838-.363.142-.714.299-1.061.467-.782.145-1.796-.021-2.182.055-.648.115-.838.634-.914 1.088-.058.336-.037.673-.074.91-.303.258-.6.521-.881.802-.667.397-1.712.52-2.01.74-.984.598-.377 1.656-.288 2.219-.198.332-.382.668-.556 1.017-.239.286-.589.528-.896.754-.336.254-.658.47-.784.621-.451.487-.283 1.013-.054 1.422.173.299.377.547.487.754-.081.384-.135.775-.186 1.168-.315.726-.979 1.478-1.146 1.835-.366 1.07.708 1.537 1.136 1.925.05.402.105.807.188 1.2-.038.771-.503 1.696-.479 2.063-.036 1.15 1.179 1.22 1.701 1.451.17.348.352.687.548 1.019.113.357.125.782.145 1.166.028.42.034.807.09.996.162.644.693.788 1.16.822.347.021.667-.019.903.005.276.275.569.533.864.786.448.646.689 1.657.914 1.972.389.515.911.525 1.362.409.338-.101.639-.257.871-.314.349.173.705.333 1.068.479.306.211.58.521.824.826.276.325.523.609.685.727.262.19.521.25.759.23.242-.038.464-.154.661-.292.284-.195.515-.434.713-.559.385.048.776.074 1.17.094.752.252 1.56.87 1.931.986.626.223 1.039-.158 1.322-.521.205-.271.351-.562.495-.748.394-.081.776-.188 1.157-.298.783-.016 1.747.325 2.13.312.644-.046.938-.478 1.086-.918.102-.338.134-.677.212-.903.324-.193.644-.395.951-.609.351-.155.772-.223 1.173-.26.422-.057.797-.104.982-.176.62-.223.746-.737.726-1.223-.008-.347-.08-.673-.072-.907.243-.288.471-.588.692-.895.135-.113.281-.221.448-.312.182-.118.379-.221.57-.315.383-.188.742-.345.896-.471.841-.767.103-1.695-.086-2.238.142-.363.278-.729.394-1.104.381-.677 1.258-1.285 1.412-1.626.583-.986-.45-1.624-.802-2.077zm-14.929 12.686c-7.34 0-13.312-5.974-13.312-13.312 0-7.339 5.973-13.31 13.312-13.31s13.311 5.972 13.311 13.311c-.001 7.339-5.971 13.311-13.311 13.311z"/><path d="m16.162 3.432c-6.932 0-12.571 5.64-12.571 12.571s5.639 12.569 12.571 12.569c6.931 0 12.571-5.639 12.571-12.569 0-6.932-5.641-12.571-12.571-12.571zm0 24.337c-6.487 0-11.767-5.277-11.767-11.767 0-6.487 5.279-11.766 11.767-11.766s11.766 5.278 11.766 11.766c-.001 6.489-5.278 11.767-11.766 11.767z"/><path d="m23.657 13.702.32-.735-7.449 3.44.928.61z"/><path d="m14.921 17.366-4.174 2.009-.013-.032c-.024-.028-.046-.057-.072-.084-.526-.547-1.45-.62-2.192-.175-.411.247-.716.62-.861 1.046-.148.439-.106.89.115 1.26.056.094.122.178.194.256.404.419 1.039.56 1.646.402.262-.061.535-.161.729-.353.319-.238.558-.562.679-.923.078-.231.097-.463.071-.687l-.025-.063 4.711-1.937zm-4.41 3.254c-.106.315-.338.596-.651.782-.549.328-1.218.289-1.589-.096-.05-.051-.093-.106-.129-.167-.147-.248-.172-.553-.072-.854.107-.319.338-.598.651-.785.55-.328 1.219-.288 1.591.097.048.051.092.108.127.167.149.246.173.55.072.856z"/><path d="m25.406 20.317c-.092-.056-1.341.011-1.649-.521-.079-.209-.194-.411-.345-.589-.554-.666-1.448-.901-2.126-.56-.018.01-.036.021-.055.03l-4.006-1.508-6.821-4.296.184.667 6.104 4.973.797-.38 3.14 1.207c-.086.189-.133.405-.136.633-.005.451.162.904.468 1.273.556.664 1.448.897 2.127.559.097-.048.186-.108.269-.177.186-.153.323-.351.412-.574.425-.484 1.217-.279 1.396-.297.18-.018.339-.382.241-.44zm-8.517-2.408c-.127.062-.279.012-.343-.114-.062-.125-.013-.278.113-.341.126-.064.279-.015.344.11.064.126.011.28-.114.345zm6.153 3.346c-.055.045-.112.084-.175.116-.479.239-1.124.057-1.533-.438-.233-.28-.357-.619-.354-.956.003-.318.128-.597.35-.781.054-.045.115-.084.177-.113.479-.243 1.123-.061 1.533.433.232.281.359.621.354.955-.006.321-.131.599-.352.784z"/></svg>